G04 #@! TF.GenerationSoftware,KiCad,Pcbnew,(5.1.2)-2*
G04 #@! TF.CreationDate,2019-12-10T15:16:51+09:00*
G04 #@! TF.ProjectId,cap-sensor,6361702d-7365-46e7-936f-722e6b696361,rev?*
G04 #@! TF.SameCoordinates,Original*
G04 #@! TF.FileFunction,Legend,Bot*
G04 #@! TF.FilePolarity,Positive*
%FSLAX46Y46*%
G04 Gerber Fmt 4.6, Leading zero omitted, Abs format (unit mm)*
G04 Created by KiCad (PCBNEW (5.1.2)-2) date 2019-12-10 15:16:51*
%MOMM*%
%LPD*%
G04 APERTURE LIST*
%ADD10C,0.120000*%
%ADD11C,0.150000*%
%ADD12C,1.252000*%
%ADD13R,1.702000X1.702000*%
%ADD14C,1.702000*%
%ADD15R,1.827000X1.827000*%
%ADD16C,1.827000*%
%ADD17C,1.602000*%
%ADD18R,1.802000X1.802000*%
%ADD19O,1.802000X1.802000*%
%ADD20C,2.102000*%
%ADD21O,1.702000X1.702000*%
%ADD22C,1.802000*%
%ADD23O,2.052000X1.802000*%
G04 APERTURE END LIST*
D10*
X127560000Y-69833748D02*
X127560000Y-70356252D01*
X128980000Y-69833748D02*
X128980000Y-70356252D01*
X140895000Y-83313748D02*
X140895000Y-83836252D01*
X142315000Y-83313748D02*
X142315000Y-83836252D01*
X113013748Y-55805000D02*
X113536252Y-55805000D01*
X113013748Y-57225000D02*
X113536252Y-57225000D01*
X112955000Y-70501252D02*
X112955000Y-69978748D01*
X114375000Y-70501252D02*
X114375000Y-69978748D01*
X132790000Y-62101252D02*
X132790000Y-61578748D01*
X131370000Y-62101252D02*
X131370000Y-61578748D01*
X123750000Y-61088748D02*
X123750000Y-61611252D01*
X125170000Y-61088748D02*
X125170000Y-61611252D01*
D11*
X129372380Y-68452142D02*
X129372380Y-68547380D01*
X129420000Y-68642619D01*
X129467619Y-68690238D01*
X129562857Y-68737857D01*
X129753333Y-68785476D01*
X129991428Y-68785476D01*
X130181904Y-68737857D01*
X130277142Y-68690238D01*
X130324761Y-68642619D01*
X130372380Y-68547380D01*
X130372380Y-68452142D01*
X130324761Y-68356904D01*
X130277142Y-68309285D01*
X130181904Y-68261666D01*
X129991428Y-68214047D01*
X129753333Y-68214047D01*
X129562857Y-68261666D01*
X129467619Y-68309285D01*
X129420000Y-68356904D01*
X129372380Y-68452142D01*
X130277142Y-69214047D02*
X130324761Y-69261666D01*
X130372380Y-69214047D01*
X130324761Y-69166428D01*
X130277142Y-69214047D01*
X130372380Y-69214047D01*
X130372380Y-70214047D02*
X130372380Y-69642619D01*
X130372380Y-69928333D02*
X129372380Y-69928333D01*
X129515238Y-69833095D01*
X129610476Y-69737857D01*
X129658095Y-69642619D01*
X129705714Y-71071190D02*
X130372380Y-71071190D01*
X129705714Y-70642619D02*
X130229523Y-70642619D01*
X130324761Y-70690238D01*
X130372380Y-70785476D01*
X130372380Y-70928333D01*
X130324761Y-71023571D01*
X130277142Y-71071190D01*
X129848571Y-71880714D02*
X129848571Y-71547380D01*
X130372380Y-71547380D02*
X129372380Y-71547380D01*
X129372380Y-72023571D01*
X143707380Y-83884523D02*
X143231190Y-83551190D01*
X143707380Y-83313095D02*
X142707380Y-83313095D01*
X142707380Y-83694047D01*
X142755000Y-83789285D01*
X142802619Y-83836904D01*
X142897857Y-83884523D01*
X143040714Y-83884523D01*
X143135952Y-83836904D01*
X143183571Y-83789285D01*
X143231190Y-83694047D01*
X143231190Y-83313095D01*
X112720476Y-58237380D02*
X113053809Y-57761190D01*
X113291904Y-58237380D02*
X113291904Y-57237380D01*
X112910952Y-57237380D01*
X112815714Y-57285000D01*
X112768095Y-57332619D01*
X112720476Y-57427857D01*
X112720476Y-57570714D01*
X112768095Y-57665952D01*
X112815714Y-57713571D01*
X112910952Y-57761190D01*
X113291904Y-57761190D01*
X115387380Y-70549523D02*
X114911190Y-70216190D01*
X115387380Y-69978095D02*
X114387380Y-69978095D01*
X114387380Y-70359047D01*
X114435000Y-70454285D01*
X114482619Y-70501904D01*
X114577857Y-70549523D01*
X114720714Y-70549523D01*
X114815952Y-70501904D01*
X114863571Y-70454285D01*
X114911190Y-70359047D01*
X114911190Y-69978095D01*
X130882380Y-60744761D02*
X130882380Y-60173333D01*
X130882380Y-60459047D02*
X129882380Y-60459047D01*
X130025238Y-60363809D01*
X130120476Y-60268571D01*
X130168095Y-60173333D01*
X129882380Y-61363809D02*
X129882380Y-61459047D01*
X129930000Y-61554285D01*
X129977619Y-61601904D01*
X130072857Y-61649523D01*
X130263333Y-61697142D01*
X130501428Y-61697142D01*
X130691904Y-61649523D01*
X130787142Y-61601904D01*
X130834761Y-61554285D01*
X130882380Y-61459047D01*
X130882380Y-61363809D01*
X130834761Y-61268571D01*
X130787142Y-61220952D01*
X130691904Y-61173333D01*
X130501428Y-61125714D01*
X130263333Y-61125714D01*
X130072857Y-61173333D01*
X129977619Y-61220952D01*
X129930000Y-61268571D01*
X129882380Y-61363809D01*
X130882380Y-62125714D02*
X129882380Y-62125714D01*
X130501428Y-62220952D02*
X130882380Y-62506666D01*
X130215714Y-62506666D02*
X130596666Y-62125714D01*
X130882380Y-63506666D02*
X130406190Y-63173333D01*
X130882380Y-62935238D02*
X129882380Y-62935238D01*
X129882380Y-63316190D01*
X129930000Y-63411428D01*
X129977619Y-63459047D01*
X130072857Y-63506666D01*
X130215714Y-63506666D01*
X130310952Y-63459047D01*
X130358571Y-63411428D01*
X130406190Y-63316190D01*
X130406190Y-62935238D01*
X126562380Y-60254761D02*
X126562380Y-59683333D01*
X126562380Y-59969047D02*
X125562380Y-59969047D01*
X125705238Y-59873809D01*
X125800476Y-59778571D01*
X125848095Y-59683333D01*
X125562380Y-60873809D02*
X125562380Y-60969047D01*
X125610000Y-61064285D01*
X125657619Y-61111904D01*
X125752857Y-61159523D01*
X125943333Y-61207142D01*
X126181428Y-61207142D01*
X126371904Y-61159523D01*
X126467142Y-61111904D01*
X126514761Y-61064285D01*
X126562380Y-60969047D01*
X126562380Y-60873809D01*
X126514761Y-60778571D01*
X126467142Y-60730952D01*
X126371904Y-60683333D01*
X126181428Y-60635714D01*
X125943333Y-60635714D01*
X125752857Y-60683333D01*
X125657619Y-60730952D01*
X125610000Y-60778571D01*
X125562380Y-60873809D01*
X126562380Y-61635714D02*
X125562380Y-61635714D01*
X126181428Y-61730952D02*
X126562380Y-62016666D01*
X125895714Y-62016666D02*
X126276666Y-61635714D01*
X126562380Y-63016666D02*
X126086190Y-62683333D01*
X126562380Y-62445238D02*
X125562380Y-62445238D01*
X125562380Y-62826190D01*
X125610000Y-62921428D01*
X125657619Y-62969047D01*
X125752857Y-63016666D01*
X125895714Y-63016666D01*
X125990952Y-62969047D01*
X126038571Y-62921428D01*
X126086190Y-62826190D01*
X126086190Y-62445238D01*
%LPC*%
G36*
X128775505Y-68445311D02*
G01*
X128801925Y-68449230D01*
X128827835Y-68455720D01*
X128852983Y-68464718D01*
X128877128Y-68476138D01*
X128900038Y-68489869D01*
X128921492Y-68505780D01*
X128941282Y-68523718D01*
X128959220Y-68543508D01*
X128975131Y-68564962D01*
X128988862Y-68587872D01*
X129000282Y-68612017D01*
X129009280Y-68637165D01*
X129015770Y-68663075D01*
X129019689Y-68689495D01*
X129021000Y-68716173D01*
X129021000Y-69423827D01*
X129019689Y-69450505D01*
X129015770Y-69476925D01*
X129009280Y-69502835D01*
X129000282Y-69527983D01*
X128988862Y-69552128D01*
X128975131Y-69575038D01*
X128959220Y-69596492D01*
X128941282Y-69616282D01*
X128921492Y-69634220D01*
X128900038Y-69650131D01*
X128877128Y-69663862D01*
X128852983Y-69675282D01*
X128827835Y-69684280D01*
X128801925Y-69690770D01*
X128775505Y-69694689D01*
X128748827Y-69696000D01*
X127791173Y-69696000D01*
X127764495Y-69694689D01*
X127738075Y-69690770D01*
X127712165Y-69684280D01*
X127687017Y-69675282D01*
X127662872Y-69663862D01*
X127639962Y-69650131D01*
X127618508Y-69634220D01*
X127598718Y-69616282D01*
X127580780Y-69596492D01*
X127564869Y-69575038D01*
X127551138Y-69552128D01*
X127539718Y-69527983D01*
X127530720Y-69502835D01*
X127524230Y-69476925D01*
X127520311Y-69450505D01*
X127519000Y-69423827D01*
X127519000Y-68716173D01*
X127520311Y-68689495D01*
X127524230Y-68663075D01*
X127530720Y-68637165D01*
X127539718Y-68612017D01*
X127551138Y-68587872D01*
X127564869Y-68564962D01*
X127580780Y-68543508D01*
X127598718Y-68523718D01*
X127618508Y-68505780D01*
X127639962Y-68489869D01*
X127662872Y-68476138D01*
X127687017Y-68464718D01*
X127712165Y-68455720D01*
X127738075Y-68449230D01*
X127764495Y-68445311D01*
X127791173Y-68444000D01*
X128748827Y-68444000D01*
X128775505Y-68445311D01*
X128775505Y-68445311D01*
G37*
D12*
X128270000Y-69070000D03*
D11*
G36*
X128775505Y-70495311D02*
G01*
X128801925Y-70499230D01*
X128827835Y-70505720D01*
X128852983Y-70514718D01*
X128877128Y-70526138D01*
X128900038Y-70539869D01*
X128921492Y-70555780D01*
X128941282Y-70573718D01*
X128959220Y-70593508D01*
X128975131Y-70614962D01*
X128988862Y-70637872D01*
X129000282Y-70662017D01*
X129009280Y-70687165D01*
X129015770Y-70713075D01*
X129019689Y-70739495D01*
X129021000Y-70766173D01*
X129021000Y-71473827D01*
X129019689Y-71500505D01*
X129015770Y-71526925D01*
X129009280Y-71552835D01*
X129000282Y-71577983D01*
X128988862Y-71602128D01*
X128975131Y-71625038D01*
X128959220Y-71646492D01*
X128941282Y-71666282D01*
X128921492Y-71684220D01*
X128900038Y-71700131D01*
X128877128Y-71713862D01*
X128852983Y-71725282D01*
X128827835Y-71734280D01*
X128801925Y-71740770D01*
X128775505Y-71744689D01*
X128748827Y-71746000D01*
X127791173Y-71746000D01*
X127764495Y-71744689D01*
X127738075Y-71740770D01*
X127712165Y-71734280D01*
X127687017Y-71725282D01*
X127662872Y-71713862D01*
X127639962Y-71700131D01*
X127618508Y-71684220D01*
X127598718Y-71666282D01*
X127580780Y-71646492D01*
X127564869Y-71625038D01*
X127551138Y-71602128D01*
X127539718Y-71577983D01*
X127530720Y-71552835D01*
X127524230Y-71526925D01*
X127520311Y-71500505D01*
X127519000Y-71473827D01*
X127519000Y-70766173D01*
X127520311Y-70739495D01*
X127524230Y-70713075D01*
X127530720Y-70687165D01*
X127539718Y-70662017D01*
X127551138Y-70637872D01*
X127564869Y-70614962D01*
X127580780Y-70593508D01*
X127598718Y-70573718D01*
X127618508Y-70555780D01*
X127639962Y-70539869D01*
X127662872Y-70526138D01*
X127687017Y-70514718D01*
X127712165Y-70505720D01*
X127738075Y-70499230D01*
X127764495Y-70495311D01*
X127791173Y-70494000D01*
X128748827Y-70494000D01*
X128775505Y-70495311D01*
X128775505Y-70495311D01*
G37*
D12*
X128270000Y-71120000D03*
D13*
X113284000Y-93980000D03*
D14*
X113284000Y-95980000D03*
D15*
X120650000Y-57785000D03*
D16*
X120650000Y-60325000D03*
X120650000Y-62865000D03*
X120650000Y-65405000D03*
X120650000Y-67945000D03*
X120650000Y-70485000D03*
X120650000Y-73025000D03*
X120650000Y-75565000D03*
X120650000Y-78105000D03*
X120650000Y-80645000D03*
X120650000Y-83185000D03*
X120650000Y-85725000D03*
X120650000Y-88265000D03*
X120650000Y-90805000D03*
X120650000Y-93345000D03*
X135890000Y-93345000D03*
X135890000Y-90805000D03*
X135890000Y-88265000D03*
X135890000Y-85725000D03*
X135890000Y-83185000D03*
X135890000Y-80645000D03*
X135890000Y-78105000D03*
X135890000Y-75565000D03*
X135890000Y-73025000D03*
X135890000Y-70485000D03*
X135890000Y-67945000D03*
X135890000Y-65405000D03*
X135890000Y-62865000D03*
X135890000Y-60325000D03*
X135890000Y-57785000D03*
D17*
X146050000Y-85090000D03*
X146050000Y-82550000D03*
X111760000Y-53975000D03*
X114300000Y-53975000D03*
X146050000Y-66040000D03*
X146050000Y-63500000D03*
X146050000Y-60960000D03*
X146050000Y-71755000D03*
X146050000Y-74295000D03*
X146050000Y-76835000D03*
D18*
X110490000Y-71755000D03*
D19*
X110490000Y-69215000D03*
D11*
G36*
X142110505Y-81925311D02*
G01*
X142136925Y-81929230D01*
X142162835Y-81935720D01*
X142187983Y-81944718D01*
X142212128Y-81956138D01*
X142235038Y-81969869D01*
X142256492Y-81985780D01*
X142276282Y-82003718D01*
X142294220Y-82023508D01*
X142310131Y-82044962D01*
X142323862Y-82067872D01*
X142335282Y-82092017D01*
X142344280Y-82117165D01*
X142350770Y-82143075D01*
X142354689Y-82169495D01*
X142356000Y-82196173D01*
X142356000Y-82903827D01*
X142354689Y-82930505D01*
X142350770Y-82956925D01*
X142344280Y-82982835D01*
X142335282Y-83007983D01*
X142323862Y-83032128D01*
X142310131Y-83055038D01*
X142294220Y-83076492D01*
X142276282Y-83096282D01*
X142256492Y-83114220D01*
X142235038Y-83130131D01*
X142212128Y-83143862D01*
X142187983Y-83155282D01*
X142162835Y-83164280D01*
X142136925Y-83170770D01*
X142110505Y-83174689D01*
X142083827Y-83176000D01*
X141126173Y-83176000D01*
X141099495Y-83174689D01*
X141073075Y-83170770D01*
X141047165Y-83164280D01*
X141022017Y-83155282D01*
X140997872Y-83143862D01*
X140974962Y-83130131D01*
X140953508Y-83114220D01*
X140933718Y-83096282D01*
X140915780Y-83076492D01*
X140899869Y-83055038D01*
X140886138Y-83032128D01*
X140874718Y-83007983D01*
X140865720Y-82982835D01*
X140859230Y-82956925D01*
X140855311Y-82930505D01*
X140854000Y-82903827D01*
X140854000Y-82196173D01*
X140855311Y-82169495D01*
X140859230Y-82143075D01*
X140865720Y-82117165D01*
X140874718Y-82092017D01*
X140886138Y-82067872D01*
X140899869Y-82044962D01*
X140915780Y-82023508D01*
X140933718Y-82003718D01*
X140953508Y-81985780D01*
X140974962Y-81969869D01*
X140997872Y-81956138D01*
X141022017Y-81944718D01*
X141047165Y-81935720D01*
X141073075Y-81929230D01*
X141099495Y-81925311D01*
X141126173Y-81924000D01*
X142083827Y-81924000D01*
X142110505Y-81925311D01*
X142110505Y-81925311D01*
G37*
D12*
X141605000Y-82550000D03*
D11*
G36*
X142110505Y-83975311D02*
G01*
X142136925Y-83979230D01*
X142162835Y-83985720D01*
X142187983Y-83994718D01*
X142212128Y-84006138D01*
X142235038Y-84019869D01*
X142256492Y-84035780D01*
X142276282Y-84053718D01*
X142294220Y-84073508D01*
X142310131Y-84094962D01*
X142323862Y-84117872D01*
X142335282Y-84142017D01*
X142344280Y-84167165D01*
X142350770Y-84193075D01*
X142354689Y-84219495D01*
X142356000Y-84246173D01*
X142356000Y-84953827D01*
X142354689Y-84980505D01*
X142350770Y-85006925D01*
X142344280Y-85032835D01*
X142335282Y-85057983D01*
X142323862Y-85082128D01*
X142310131Y-85105038D01*
X142294220Y-85126492D01*
X142276282Y-85146282D01*
X142256492Y-85164220D01*
X142235038Y-85180131D01*
X142212128Y-85193862D01*
X142187983Y-85205282D01*
X142162835Y-85214280D01*
X142136925Y-85220770D01*
X142110505Y-85224689D01*
X142083827Y-85226000D01*
X141126173Y-85226000D01*
X141099495Y-85224689D01*
X141073075Y-85220770D01*
X141047165Y-85214280D01*
X141022017Y-85205282D01*
X140997872Y-85193862D01*
X140974962Y-85180131D01*
X140953508Y-85164220D01*
X140933718Y-85146282D01*
X140915780Y-85126492D01*
X140899869Y-85105038D01*
X140886138Y-85082128D01*
X140874718Y-85057983D01*
X140865720Y-85032835D01*
X140859230Y-85006925D01*
X140855311Y-84980505D01*
X140854000Y-84953827D01*
X140854000Y-84246173D01*
X140855311Y-84219495D01*
X140859230Y-84193075D01*
X140865720Y-84167165D01*
X140874718Y-84142017D01*
X140886138Y-84117872D01*
X140899869Y-84094962D01*
X140915780Y-84073508D01*
X140933718Y-84053718D01*
X140953508Y-84035780D01*
X140974962Y-84019869D01*
X140997872Y-84006138D01*
X141022017Y-83994718D01*
X141047165Y-83985720D01*
X141073075Y-83979230D01*
X141099495Y-83975311D01*
X141126173Y-83974000D01*
X142083827Y-83974000D01*
X142110505Y-83975311D01*
X142110505Y-83975311D01*
G37*
D12*
X141605000Y-84600000D03*
D11*
G36*
X114680505Y-55765311D02*
G01*
X114706925Y-55769230D01*
X114732835Y-55775720D01*
X114757983Y-55784718D01*
X114782128Y-55796138D01*
X114805038Y-55809869D01*
X114826492Y-55825780D01*
X114846282Y-55843718D01*
X114864220Y-55863508D01*
X114880131Y-55884962D01*
X114893862Y-55907872D01*
X114905282Y-55932017D01*
X114914280Y-55957165D01*
X114920770Y-55983075D01*
X114924689Y-56009495D01*
X114926000Y-56036173D01*
X114926000Y-56993827D01*
X114924689Y-57020505D01*
X114920770Y-57046925D01*
X114914280Y-57072835D01*
X114905282Y-57097983D01*
X114893862Y-57122128D01*
X114880131Y-57145038D01*
X114864220Y-57166492D01*
X114846282Y-57186282D01*
X114826492Y-57204220D01*
X114805038Y-57220131D01*
X114782128Y-57233862D01*
X114757983Y-57245282D01*
X114732835Y-57254280D01*
X114706925Y-57260770D01*
X114680505Y-57264689D01*
X114653827Y-57266000D01*
X113946173Y-57266000D01*
X113919495Y-57264689D01*
X113893075Y-57260770D01*
X113867165Y-57254280D01*
X113842017Y-57245282D01*
X113817872Y-57233862D01*
X113794962Y-57220131D01*
X113773508Y-57204220D01*
X113753718Y-57186282D01*
X113735780Y-57166492D01*
X113719869Y-57145038D01*
X113706138Y-57122128D01*
X113694718Y-57097983D01*
X113685720Y-57072835D01*
X113679230Y-57046925D01*
X113675311Y-57020505D01*
X113674000Y-56993827D01*
X113674000Y-56036173D01*
X113675311Y-56009495D01*
X113679230Y-55983075D01*
X113685720Y-55957165D01*
X113694718Y-55932017D01*
X113706138Y-55907872D01*
X113719869Y-55884962D01*
X113735780Y-55863508D01*
X113753718Y-55843718D01*
X113773508Y-55825780D01*
X113794962Y-55809869D01*
X113817872Y-55796138D01*
X113842017Y-55784718D01*
X113867165Y-55775720D01*
X113893075Y-55769230D01*
X113919495Y-55765311D01*
X113946173Y-55764000D01*
X114653827Y-55764000D01*
X114680505Y-55765311D01*
X114680505Y-55765311D01*
G37*
D12*
X114300000Y-56515000D03*
D11*
G36*
X112630505Y-55765311D02*
G01*
X112656925Y-55769230D01*
X112682835Y-55775720D01*
X112707983Y-55784718D01*
X112732128Y-55796138D01*
X112755038Y-55809869D01*
X112776492Y-55825780D01*
X112796282Y-55843718D01*
X112814220Y-55863508D01*
X112830131Y-55884962D01*
X112843862Y-55907872D01*
X112855282Y-55932017D01*
X112864280Y-55957165D01*
X112870770Y-55983075D01*
X112874689Y-56009495D01*
X112876000Y-56036173D01*
X112876000Y-56993827D01*
X112874689Y-57020505D01*
X112870770Y-57046925D01*
X112864280Y-57072835D01*
X112855282Y-57097983D01*
X112843862Y-57122128D01*
X112830131Y-57145038D01*
X112814220Y-57166492D01*
X112796282Y-57186282D01*
X112776492Y-57204220D01*
X112755038Y-57220131D01*
X112732128Y-57233862D01*
X112707983Y-57245282D01*
X112682835Y-57254280D01*
X112656925Y-57260770D01*
X112630505Y-57264689D01*
X112603827Y-57266000D01*
X111896173Y-57266000D01*
X111869495Y-57264689D01*
X111843075Y-57260770D01*
X111817165Y-57254280D01*
X111792017Y-57245282D01*
X111767872Y-57233862D01*
X111744962Y-57220131D01*
X111723508Y-57204220D01*
X111703718Y-57186282D01*
X111685780Y-57166492D01*
X111669869Y-57145038D01*
X111656138Y-57122128D01*
X111644718Y-57097983D01*
X111635720Y-57072835D01*
X111629230Y-57046925D01*
X111625311Y-57020505D01*
X111624000Y-56993827D01*
X111624000Y-56036173D01*
X111625311Y-56009495D01*
X111629230Y-55983075D01*
X111635720Y-55957165D01*
X111644718Y-55932017D01*
X111656138Y-55907872D01*
X111669869Y-55884962D01*
X111685780Y-55863508D01*
X111703718Y-55843718D01*
X111723508Y-55825780D01*
X111744962Y-55809869D01*
X111767872Y-55796138D01*
X111792017Y-55784718D01*
X111817165Y-55775720D01*
X111843075Y-55769230D01*
X111869495Y-55765311D01*
X111896173Y-55764000D01*
X112603827Y-55764000D01*
X112630505Y-55765311D01*
X112630505Y-55765311D01*
G37*
D12*
X112250000Y-56515000D03*
D11*
G36*
X114170505Y-68590311D02*
G01*
X114196925Y-68594230D01*
X114222835Y-68600720D01*
X114247983Y-68609718D01*
X114272128Y-68621138D01*
X114295038Y-68634869D01*
X114316492Y-68650780D01*
X114336282Y-68668718D01*
X114354220Y-68688508D01*
X114370131Y-68709962D01*
X114383862Y-68732872D01*
X114395282Y-68757017D01*
X114404280Y-68782165D01*
X114410770Y-68808075D01*
X114414689Y-68834495D01*
X114416000Y-68861173D01*
X114416000Y-69568827D01*
X114414689Y-69595505D01*
X114410770Y-69621925D01*
X114404280Y-69647835D01*
X114395282Y-69672983D01*
X114383862Y-69697128D01*
X114370131Y-69720038D01*
X114354220Y-69741492D01*
X114336282Y-69761282D01*
X114316492Y-69779220D01*
X114295038Y-69795131D01*
X114272128Y-69808862D01*
X114247983Y-69820282D01*
X114222835Y-69829280D01*
X114196925Y-69835770D01*
X114170505Y-69839689D01*
X114143827Y-69841000D01*
X113186173Y-69841000D01*
X113159495Y-69839689D01*
X113133075Y-69835770D01*
X113107165Y-69829280D01*
X113082017Y-69820282D01*
X113057872Y-69808862D01*
X113034962Y-69795131D01*
X113013508Y-69779220D01*
X112993718Y-69761282D01*
X112975780Y-69741492D01*
X112959869Y-69720038D01*
X112946138Y-69697128D01*
X112934718Y-69672983D01*
X112925720Y-69647835D01*
X112919230Y-69621925D01*
X112915311Y-69595505D01*
X112914000Y-69568827D01*
X112914000Y-68861173D01*
X112915311Y-68834495D01*
X112919230Y-68808075D01*
X112925720Y-68782165D01*
X112934718Y-68757017D01*
X112946138Y-68732872D01*
X112959869Y-68709962D01*
X112975780Y-68688508D01*
X112993718Y-68668718D01*
X113013508Y-68650780D01*
X113034962Y-68634869D01*
X113057872Y-68621138D01*
X113082017Y-68609718D01*
X113107165Y-68600720D01*
X113133075Y-68594230D01*
X113159495Y-68590311D01*
X113186173Y-68589000D01*
X114143827Y-68589000D01*
X114170505Y-68590311D01*
X114170505Y-68590311D01*
G37*
D12*
X113665000Y-69215000D03*
D11*
G36*
X114170505Y-70640311D02*
G01*
X114196925Y-70644230D01*
X114222835Y-70650720D01*
X114247983Y-70659718D01*
X114272128Y-70671138D01*
X114295038Y-70684869D01*
X114316492Y-70700780D01*
X114336282Y-70718718D01*
X114354220Y-70738508D01*
X114370131Y-70759962D01*
X114383862Y-70782872D01*
X114395282Y-70807017D01*
X114404280Y-70832165D01*
X114410770Y-70858075D01*
X114414689Y-70884495D01*
X114416000Y-70911173D01*
X114416000Y-71618827D01*
X114414689Y-71645505D01*
X114410770Y-71671925D01*
X114404280Y-71697835D01*
X114395282Y-71722983D01*
X114383862Y-71747128D01*
X114370131Y-71770038D01*
X114354220Y-71791492D01*
X114336282Y-71811282D01*
X114316492Y-71829220D01*
X114295038Y-71845131D01*
X114272128Y-71858862D01*
X114247983Y-71870282D01*
X114222835Y-71879280D01*
X114196925Y-71885770D01*
X114170505Y-71889689D01*
X114143827Y-71891000D01*
X113186173Y-71891000D01*
X113159495Y-71889689D01*
X113133075Y-71885770D01*
X113107165Y-71879280D01*
X113082017Y-71870282D01*
X113057872Y-71858862D01*
X113034962Y-71845131D01*
X113013508Y-71829220D01*
X112993718Y-71811282D01*
X112975780Y-71791492D01*
X112959869Y-71770038D01*
X112946138Y-71747128D01*
X112934718Y-71722983D01*
X112925720Y-71697835D01*
X112919230Y-71671925D01*
X112915311Y-71645505D01*
X112914000Y-71618827D01*
X112914000Y-70911173D01*
X112915311Y-70884495D01*
X112919230Y-70858075D01*
X112925720Y-70832165D01*
X112934718Y-70807017D01*
X112946138Y-70782872D01*
X112959869Y-70759962D01*
X112975780Y-70738508D01*
X112993718Y-70718718D01*
X113013508Y-70700780D01*
X113034962Y-70684869D01*
X113057872Y-70671138D01*
X113082017Y-70659718D01*
X113107165Y-70650720D01*
X113133075Y-70644230D01*
X113159495Y-70640311D01*
X113186173Y-70639000D01*
X114143827Y-70639000D01*
X114170505Y-70640311D01*
X114170505Y-70640311D01*
G37*
D12*
X113665000Y-71265000D03*
D11*
G36*
X132585505Y-62240311D02*
G01*
X132611925Y-62244230D01*
X132637835Y-62250720D01*
X132662983Y-62259718D01*
X132687128Y-62271138D01*
X132710038Y-62284869D01*
X132731492Y-62300780D01*
X132751282Y-62318718D01*
X132769220Y-62338508D01*
X132785131Y-62359962D01*
X132798862Y-62382872D01*
X132810282Y-62407017D01*
X132819280Y-62432165D01*
X132825770Y-62458075D01*
X132829689Y-62484495D01*
X132831000Y-62511173D01*
X132831000Y-63218827D01*
X132829689Y-63245505D01*
X132825770Y-63271925D01*
X132819280Y-63297835D01*
X132810282Y-63322983D01*
X132798862Y-63347128D01*
X132785131Y-63370038D01*
X132769220Y-63391492D01*
X132751282Y-63411282D01*
X132731492Y-63429220D01*
X132710038Y-63445131D01*
X132687128Y-63458862D01*
X132662983Y-63470282D01*
X132637835Y-63479280D01*
X132611925Y-63485770D01*
X132585505Y-63489689D01*
X132558827Y-63491000D01*
X131601173Y-63491000D01*
X131574495Y-63489689D01*
X131548075Y-63485770D01*
X131522165Y-63479280D01*
X131497017Y-63470282D01*
X131472872Y-63458862D01*
X131449962Y-63445131D01*
X131428508Y-63429220D01*
X131408718Y-63411282D01*
X131390780Y-63391492D01*
X131374869Y-63370038D01*
X131361138Y-63347128D01*
X131349718Y-63322983D01*
X131340720Y-63297835D01*
X131334230Y-63271925D01*
X131330311Y-63245505D01*
X131329000Y-63218827D01*
X131329000Y-62511173D01*
X131330311Y-62484495D01*
X131334230Y-62458075D01*
X131340720Y-62432165D01*
X131349718Y-62407017D01*
X131361138Y-62382872D01*
X131374869Y-62359962D01*
X131390780Y-62338508D01*
X131408718Y-62318718D01*
X131428508Y-62300780D01*
X131449962Y-62284869D01*
X131472872Y-62271138D01*
X131497017Y-62259718D01*
X131522165Y-62250720D01*
X131548075Y-62244230D01*
X131574495Y-62240311D01*
X131601173Y-62239000D01*
X132558827Y-62239000D01*
X132585505Y-62240311D01*
X132585505Y-62240311D01*
G37*
D12*
X132080000Y-62865000D03*
D11*
G36*
X132585505Y-60190311D02*
G01*
X132611925Y-60194230D01*
X132637835Y-60200720D01*
X132662983Y-60209718D01*
X132687128Y-60221138D01*
X132710038Y-60234869D01*
X132731492Y-60250780D01*
X132751282Y-60268718D01*
X132769220Y-60288508D01*
X132785131Y-60309962D01*
X132798862Y-60332872D01*
X132810282Y-60357017D01*
X132819280Y-60382165D01*
X132825770Y-60408075D01*
X132829689Y-60434495D01*
X132831000Y-60461173D01*
X132831000Y-61168827D01*
X132829689Y-61195505D01*
X132825770Y-61221925D01*
X132819280Y-61247835D01*
X132810282Y-61272983D01*
X132798862Y-61297128D01*
X132785131Y-61320038D01*
X132769220Y-61341492D01*
X132751282Y-61361282D01*
X132731492Y-61379220D01*
X132710038Y-61395131D01*
X132687128Y-61408862D01*
X132662983Y-61420282D01*
X132637835Y-61429280D01*
X132611925Y-61435770D01*
X132585505Y-61439689D01*
X132558827Y-61441000D01*
X131601173Y-61441000D01*
X131574495Y-61439689D01*
X131548075Y-61435770D01*
X131522165Y-61429280D01*
X131497017Y-61420282D01*
X131472872Y-61408862D01*
X131449962Y-61395131D01*
X131428508Y-61379220D01*
X131408718Y-61361282D01*
X131390780Y-61341492D01*
X131374869Y-61320038D01*
X131361138Y-61297128D01*
X131349718Y-61272983D01*
X131340720Y-61247835D01*
X131334230Y-61221925D01*
X131330311Y-61195505D01*
X131329000Y-61168827D01*
X131329000Y-60461173D01*
X131330311Y-60434495D01*
X131334230Y-60408075D01*
X131340720Y-60382165D01*
X131349718Y-60357017D01*
X131361138Y-60332872D01*
X131374869Y-60309962D01*
X131390780Y-60288508D01*
X131408718Y-60268718D01*
X131428508Y-60250780D01*
X131449962Y-60234869D01*
X131472872Y-60221138D01*
X131497017Y-60209718D01*
X131522165Y-60200720D01*
X131548075Y-60194230D01*
X131574495Y-60190311D01*
X131601173Y-60189000D01*
X132558827Y-60189000D01*
X132585505Y-60190311D01*
X132585505Y-60190311D01*
G37*
D12*
X132080000Y-60815000D03*
D11*
G36*
X124965505Y-59700311D02*
G01*
X124991925Y-59704230D01*
X125017835Y-59710720D01*
X125042983Y-59719718D01*
X125067128Y-59731138D01*
X125090038Y-59744869D01*
X125111492Y-59760780D01*
X125131282Y-59778718D01*
X125149220Y-59798508D01*
X125165131Y-59819962D01*
X125178862Y-59842872D01*
X125190282Y-59867017D01*
X125199280Y-59892165D01*
X125205770Y-59918075D01*
X125209689Y-59944495D01*
X125211000Y-59971173D01*
X125211000Y-60678827D01*
X125209689Y-60705505D01*
X125205770Y-60731925D01*
X125199280Y-60757835D01*
X125190282Y-60782983D01*
X125178862Y-60807128D01*
X125165131Y-60830038D01*
X125149220Y-60851492D01*
X125131282Y-60871282D01*
X125111492Y-60889220D01*
X125090038Y-60905131D01*
X125067128Y-60918862D01*
X125042983Y-60930282D01*
X125017835Y-60939280D01*
X124991925Y-60945770D01*
X124965505Y-60949689D01*
X124938827Y-60951000D01*
X123981173Y-60951000D01*
X123954495Y-60949689D01*
X123928075Y-60945770D01*
X123902165Y-60939280D01*
X123877017Y-60930282D01*
X123852872Y-60918862D01*
X123829962Y-60905131D01*
X123808508Y-60889220D01*
X123788718Y-60871282D01*
X123770780Y-60851492D01*
X123754869Y-60830038D01*
X123741138Y-60807128D01*
X123729718Y-60782983D01*
X123720720Y-60757835D01*
X123714230Y-60731925D01*
X123710311Y-60705505D01*
X123709000Y-60678827D01*
X123709000Y-59971173D01*
X123710311Y-59944495D01*
X123714230Y-59918075D01*
X123720720Y-59892165D01*
X123729718Y-59867017D01*
X123741138Y-59842872D01*
X123754869Y-59819962D01*
X123770780Y-59798508D01*
X123788718Y-59778718D01*
X123808508Y-59760780D01*
X123829962Y-59744869D01*
X123852872Y-59731138D01*
X123877017Y-59719718D01*
X123902165Y-59710720D01*
X123928075Y-59704230D01*
X123954495Y-59700311D01*
X123981173Y-59699000D01*
X124938827Y-59699000D01*
X124965505Y-59700311D01*
X124965505Y-59700311D01*
G37*
D12*
X124460000Y-60325000D03*
D11*
G36*
X124965505Y-61750311D02*
G01*
X124991925Y-61754230D01*
X125017835Y-61760720D01*
X125042983Y-61769718D01*
X125067128Y-61781138D01*
X125090038Y-61794869D01*
X125111492Y-61810780D01*
X125131282Y-61828718D01*
X125149220Y-61848508D01*
X125165131Y-61869962D01*
X125178862Y-61892872D01*
X125190282Y-61917017D01*
X125199280Y-61942165D01*
X125205770Y-61968075D01*
X125209689Y-61994495D01*
X125211000Y-62021173D01*
X125211000Y-62728827D01*
X125209689Y-62755505D01*
X125205770Y-62781925D01*
X125199280Y-62807835D01*
X125190282Y-62832983D01*
X125178862Y-62857128D01*
X125165131Y-62880038D01*
X125149220Y-62901492D01*
X125131282Y-62921282D01*
X125111492Y-62939220D01*
X125090038Y-62955131D01*
X125067128Y-62968862D01*
X125042983Y-62980282D01*
X125017835Y-62989280D01*
X124991925Y-62995770D01*
X124965505Y-62999689D01*
X124938827Y-63001000D01*
X123981173Y-63001000D01*
X123954495Y-62999689D01*
X123928075Y-62995770D01*
X123902165Y-62989280D01*
X123877017Y-62980282D01*
X123852872Y-62968862D01*
X123829962Y-62955131D01*
X123808508Y-62939220D01*
X123788718Y-62921282D01*
X123770780Y-62901492D01*
X123754869Y-62880038D01*
X123741138Y-62857128D01*
X123729718Y-62832983D01*
X123720720Y-62807835D01*
X123714230Y-62781925D01*
X123710311Y-62755505D01*
X123709000Y-62728827D01*
X123709000Y-62021173D01*
X123710311Y-61994495D01*
X123714230Y-61968075D01*
X123720720Y-61942165D01*
X123729718Y-61917017D01*
X123741138Y-61892872D01*
X123754869Y-61869962D01*
X123770780Y-61848508D01*
X123788718Y-61828718D01*
X123808508Y-61810780D01*
X123829962Y-61794869D01*
X123852872Y-61781138D01*
X123877017Y-61769718D01*
X123902165Y-61760720D01*
X123928075Y-61754230D01*
X123954495Y-61750311D01*
X123981173Y-61749000D01*
X124938827Y-61749000D01*
X124965505Y-61750311D01*
X124965505Y-61750311D01*
G37*
D12*
X124460000Y-62375000D03*
D20*
X109855000Y-64825000D03*
X109855000Y-60325000D03*
X116355000Y-64825000D03*
X116355000Y-60325000D03*
D13*
X124460000Y-66040000D03*
D21*
X132080000Y-73660000D03*
X124460000Y-68580000D03*
X132080000Y-71120000D03*
X124460000Y-71120000D03*
X132080000Y-68580000D03*
X124460000Y-73660000D03*
X132080000Y-66040000D03*
D11*
G36*
X104418975Y-70728276D02*
G01*
X104444699Y-70732092D01*
X104469925Y-70738411D01*
X104494411Y-70747172D01*
X104517920Y-70758291D01*
X104540226Y-70771661D01*
X104561114Y-70787152D01*
X104580383Y-70804617D01*
X104597848Y-70823886D01*
X104613339Y-70844774D01*
X104626709Y-70867080D01*
X104637828Y-70890589D01*
X104646589Y-70915075D01*
X104652908Y-70940301D01*
X104656724Y-70966025D01*
X104658000Y-70992000D01*
X104658000Y-72264000D01*
X104656724Y-72289975D01*
X104652908Y-72315699D01*
X104646589Y-72340925D01*
X104637828Y-72365411D01*
X104626709Y-72388920D01*
X104613339Y-72411226D01*
X104597848Y-72432114D01*
X104580383Y-72451383D01*
X104561114Y-72468848D01*
X104540226Y-72484339D01*
X104517920Y-72497709D01*
X104494411Y-72508828D01*
X104469925Y-72517589D01*
X104444699Y-72523908D01*
X104418975Y-72527724D01*
X104393000Y-72529000D01*
X102871000Y-72529000D01*
X102845025Y-72527724D01*
X102819301Y-72523908D01*
X102794075Y-72517589D01*
X102769589Y-72508828D01*
X102746080Y-72497709D01*
X102723774Y-72484339D01*
X102702886Y-72468848D01*
X102683617Y-72451383D01*
X102666152Y-72432114D01*
X102650661Y-72411226D01*
X102637291Y-72388920D01*
X102626172Y-72365411D01*
X102617411Y-72340925D01*
X102611092Y-72315699D01*
X102607276Y-72289975D01*
X102606000Y-72264000D01*
X102606000Y-70992000D01*
X102607276Y-70966025D01*
X102611092Y-70940301D01*
X102617411Y-70915075D01*
X102626172Y-70890589D01*
X102637291Y-70867080D01*
X102650661Y-70844774D01*
X102666152Y-70823886D01*
X102683617Y-70804617D01*
X102702886Y-70787152D01*
X102723774Y-70771661D01*
X102746080Y-70758291D01*
X102769589Y-70747172D01*
X102794075Y-70738411D01*
X102819301Y-70732092D01*
X102845025Y-70728276D01*
X102871000Y-70727000D01*
X104393000Y-70727000D01*
X104418975Y-70728276D01*
X104418975Y-70728276D01*
G37*
D22*
X103632000Y-71628000D03*
D23*
X103632000Y-69128000D03*
X103632000Y-66628000D03*
X103632000Y-64128000D03*
X103632000Y-61628000D03*
X113157000Y-78519000D03*
X113157000Y-81019000D03*
X113157000Y-83519000D03*
X113157000Y-86019000D03*
D11*
G36*
X113943975Y-87619276D02*
G01*
X113969699Y-87623092D01*
X113994925Y-87629411D01*
X114019411Y-87638172D01*
X114042920Y-87649291D01*
X114065226Y-87662661D01*
X114086114Y-87678152D01*
X114105383Y-87695617D01*
X114122848Y-87714886D01*
X114138339Y-87735774D01*
X114151709Y-87758080D01*
X114162828Y-87781589D01*
X114171589Y-87806075D01*
X114177908Y-87831301D01*
X114181724Y-87857025D01*
X114183000Y-87883000D01*
X114183000Y-89155000D01*
X114181724Y-89180975D01*
X114177908Y-89206699D01*
X114171589Y-89231925D01*
X114162828Y-89256411D01*
X114151709Y-89279920D01*
X114138339Y-89302226D01*
X114122848Y-89323114D01*
X114105383Y-89342383D01*
X114086114Y-89359848D01*
X114065226Y-89375339D01*
X114042920Y-89388709D01*
X114019411Y-89399828D01*
X113994925Y-89408589D01*
X113969699Y-89414908D01*
X113943975Y-89418724D01*
X113918000Y-89420000D01*
X112396000Y-89420000D01*
X112370025Y-89418724D01*
X112344301Y-89414908D01*
X112319075Y-89408589D01*
X112294589Y-89399828D01*
X112271080Y-89388709D01*
X112248774Y-89375339D01*
X112227886Y-89359848D01*
X112208617Y-89342383D01*
X112191152Y-89323114D01*
X112175661Y-89302226D01*
X112162291Y-89279920D01*
X112151172Y-89256411D01*
X112142411Y-89231925D01*
X112136092Y-89206699D01*
X112132276Y-89180975D01*
X112131000Y-89155000D01*
X112131000Y-87883000D01*
X112132276Y-87857025D01*
X112136092Y-87831301D01*
X112142411Y-87806075D01*
X112151172Y-87781589D01*
X112162291Y-87758080D01*
X112175661Y-87735774D01*
X112191152Y-87714886D01*
X112208617Y-87695617D01*
X112227886Y-87678152D01*
X112248774Y-87662661D01*
X112271080Y-87649291D01*
X112294589Y-87638172D01*
X112319075Y-87629411D01*
X112344301Y-87623092D01*
X112370025Y-87619276D01*
X112396000Y-87618000D01*
X113918000Y-87618000D01*
X113943975Y-87619276D01*
X113943975Y-87619276D01*
G37*
D22*
X113157000Y-88519000D03*
D11*
G36*
X104418975Y-87619276D02*
G01*
X104444699Y-87623092D01*
X104469925Y-87629411D01*
X104494411Y-87638172D01*
X104517920Y-87649291D01*
X104540226Y-87662661D01*
X104561114Y-87678152D01*
X104580383Y-87695617D01*
X104597848Y-87714886D01*
X104613339Y-87735774D01*
X104626709Y-87758080D01*
X104637828Y-87781589D01*
X104646589Y-87806075D01*
X104652908Y-87831301D01*
X104656724Y-87857025D01*
X104658000Y-87883000D01*
X104658000Y-89155000D01*
X104656724Y-89180975D01*
X104652908Y-89206699D01*
X104646589Y-89231925D01*
X104637828Y-89256411D01*
X104626709Y-89279920D01*
X104613339Y-89302226D01*
X104597848Y-89323114D01*
X104580383Y-89342383D01*
X104561114Y-89359848D01*
X104540226Y-89375339D01*
X104517920Y-89388709D01*
X104494411Y-89399828D01*
X104469925Y-89408589D01*
X104444699Y-89414908D01*
X104418975Y-89418724D01*
X104393000Y-89420000D01*
X102871000Y-89420000D01*
X102845025Y-89418724D01*
X102819301Y-89414908D01*
X102794075Y-89408589D01*
X102769589Y-89399828D01*
X102746080Y-89388709D01*
X102723774Y-89375339D01*
X102702886Y-89359848D01*
X102683617Y-89342383D01*
X102666152Y-89323114D01*
X102650661Y-89302226D01*
X102637291Y-89279920D01*
X102626172Y-89256411D01*
X102617411Y-89231925D01*
X102611092Y-89206699D01*
X102607276Y-89180975D01*
X102606000Y-89155000D01*
X102606000Y-87883000D01*
X102607276Y-87857025D01*
X102611092Y-87831301D01*
X102617411Y-87806075D01*
X102626172Y-87781589D01*
X102637291Y-87758080D01*
X102650661Y-87735774D01*
X102666152Y-87714886D01*
X102683617Y-87695617D01*
X102702886Y-87678152D01*
X102723774Y-87662661D01*
X102746080Y-87649291D01*
X102769589Y-87638172D01*
X102794075Y-87629411D01*
X102819301Y-87623092D01*
X102845025Y-87619276D01*
X102871000Y-87618000D01*
X104393000Y-87618000D01*
X104418975Y-87619276D01*
X104418975Y-87619276D01*
G37*
D22*
X103632000Y-88519000D03*
D23*
X103632000Y-86019000D03*
X103632000Y-83519000D03*
X103632000Y-81019000D03*
X103632000Y-78519000D03*
M02*
