M48
; DRILL file {KiCad (5.1.2)-2} date 2019/12/10 15:17:35
; FORMAT={3:3/ absolute / metric / suppress leading zeros}
; #@! TF.CreationDate,2019-12-10T15:17:35+09:00
; #@! TF.GenerationSoftware,Kicad,Pcbnew,(5.1.2)-2
FMAT,2
METRIC,TZ
T1C0.400
T2C0.800
T3C0.900
T4C0.950
T5C1.000
T6C1.100
T7C1.150
T8C3.000
%
G90
G05
T1
X115570Y-69215
X115570Y-73025
X115570Y-83185
X118745Y-61595
X122555Y-74295
X126365Y-69070
X132080Y-59055
T2
X124460Y-66040
X124460Y-68580
X124460Y-71120
X124460Y-73660
X132080Y-66040
X132080Y-68580
X132080Y-71120
X132080Y-73660
X113284Y-93980
X113284Y-95980
T3
X146050Y-60960
X146050Y-63500
X146050Y-66040
X146050Y-82550
X146050Y-85090
X146050Y-71755
X146050Y-74295
X146050Y-76835
X111760Y-53975
X114300Y-53975
T4
X113157Y-78519
X113157Y-81019
X113157Y-83519
X113157Y-86019
X113157Y-88519
X103632Y-78519
X103632Y-81019
X103632Y-83519
X103632Y-86019
X103632Y-88519
X103632Y-61628
X103632Y-64128
X103632Y-66628
X103632Y-69128
X103632Y-71628
T5
X110490Y-69215
X110490Y-71755
T6
X109855Y-60325
X109855Y-64825
X116355Y-60325
X116355Y-64825
T7
X120650Y-57785
X120650Y-60325
X120650Y-62865
X120650Y-65405
X120650Y-67945
X120650Y-70485
X120650Y-73025
X120650Y-75565
X120650Y-78105
X120650Y-80645
X120650Y-83185
X120650Y-85725
X120650Y-88265
X120650Y-90805
X120650Y-93345
X135890Y-57785
X135890Y-60325
X135890Y-62865
X135890Y-65405
X135890Y-67945
X135890Y-70485
X135890Y-73025
X135890Y-75565
X135890Y-78105
X135890Y-80645
X135890Y-83185
X135890Y-85725
X135890Y-88265
X135890Y-90805
X135890Y-93345
T8
X105000Y-55000
X105000Y-95000
X125000Y-55000
X125000Y-95000
X145000Y-55000
X145000Y-95000
T0
M30
